HIERARCHY
ROOT Hips
{
	OFFSET 0.000000 0.000000 0.000000 
	CHANNELS 6 Xposition Yposition Zposition Zrotation Yrotation Xrotation
	JOINT LeftUpLeg
	{
		OFFSET 1.363060 -1.794630 0.839290 
		CHANNELS 3 Zrotation Yrotation Xrotation
		JOINT LeftLeg
		{
			OFFSET 2.448110 -6.726130 0.000000 
			CHANNELS 3 Zrotation Yrotation Xrotation
			JOINT LeftFoot
			{
				OFFSET 2.562200 -7.039590 0.000000 
				CHANNELS 3 Zrotation Yrotation Xrotation
				JOINT LeftToeBase
				{
					OFFSET 0.157640 -0.433110 2.322550 
					CHANNELS 3 Zrotation Yrotation Xrotation
					End Site
					{
						OFFSET 0.000000 0.000000 0.000000 
					}
				}
			}
		}
	}
	JOINT RightUpLeg
	{
		OFFSET -1.305520 -1.794630 0.839290 
		CHANNELS 3 Zrotation Yrotation Xrotation
		JOINT RightLeg
		{
			OFFSET -2.542530 -6.985550 0.000000 
			CHANNELS 3 Zrotation Yrotation Xrotation
			JOINT RightFoot
			{
				OFFSET -2.568260 -7.056230 0.000000 
				CHANNELS 3 Zrotation Yrotation Xrotation
				JOINT RightToeBase
				{
					OFFSET -0.164730 -0.452590 2.363150 
					CHANNELS 3 Zrotation Yrotation Xrotation
					End Site
					{
						OFFSET 0.000000 0.000000 0.000000 
					}
				}
			}
		}
	}
	JOINT Spine
	{
		OFFSET 0.028270 2.035590 -0.193380 
		CHANNELS 3 Zrotation Yrotation Xrotation
		JOINT Spine1
		{
			OFFSET 0.056720 2.048850 -0.042750 
			CHANNELS 3 Zrotation Yrotation Xrotation
			JOINT Neck1
			{
				OFFSET -0.054170 1.746240 0.172020 
				CHANNELS 3 Zrotation Yrotation Xrotation
				JOINT Head
				{
					OFFSET 0.104070 1.761360 -0.123970 
					CHANNELS 3 Zrotation Yrotation Xrotation
					End Site
					{
						OFFSET 0.000000 0.000000 0.000000 
					}
				}
			}
			JOINT LeftArm
			{
				OFFSET 3.362410 1.200890 -0.311210 
				CHANNELS 3 Zrotation Yrotation Xrotation
				JOINT LeftForeArm
				{
					OFFSET 4.983000 -0.000000 -0.000000 
					CHANNELS 3 Zrotation Yrotation Xrotation
					JOINT LeftHand
					{
						OFFSET 3.483560 -0.000000 -0.000000 
						CHANNELS 3 Zrotation Yrotation Xrotation
						JOINT LeftHandIndex1
						{
							OFFSET 0.715260 -0.000000 -0.000000 
							CHANNELS 3 Zrotation Yrotation Xrotation
							End Site
							{
								OFFSET 0.000000 0.000000 0.000000 
							}
						}
					}
				}
			}
			JOINT RightArm
			{
				OFFSET -3.136600 1.374050 -0.404650 
				CHANNELS 3 Zrotation Yrotation Xrotation
				JOINT RightForeArm
				{
					OFFSET -5.241900 -0.000000 -0.000000 
					CHANNELS 3 Zrotation Yrotation Xrotation
					JOINT RightHand
					{
						OFFSET -3.444170 -0.000000 -0.000000 
						CHANNELS 3 Zrotation Yrotation Xrotation
						JOINT RightHandIndex1
						{
							OFFSET -0.622530 -0.000000 -0.000000 
							CHANNELS 3 Zrotation Yrotation Xrotation
							End Site
							{
								OFFSET 0.000000 0.000000 0.000000 
							}
						}
					}
				}
			}
		}
	}
}
MOTION
Frames: 7
Frame Time: 0.041667
0.958090 17.934183 8.422184 -4.738403 -6.621183 3.022555 -5.992989 -11.238883 -27.125596 -2.216082 5.192921 15.646929 2.111514 -0.263246 22.861505 0.208500 -2.939900 -8.111500 21.902153 8.257306 5.313605 -1.908845 -7.954759 30.262007 0.681604 -3.798990 8.466447 -0.240900 3.158500 -8.720500 2.252571 4.809936 1.511490 -2.212861 2.423687 -5.660257 3.998261 -4.573144 16.044976 0.006000 -1.902800 9.072900 -81.575207 13.012033 17.998763 9.182067 -16.946251 -1.497358 -1.089190 -1.690456 -0.866016 -7.125000 0.000000 0.000000 71.007427 6.840259 18.977417 -13.563000 26.600777 -4.185701 1.139447 -0.556306 -0.019810 7.125000 0.000000 0.000000 
0.977676 17.939358 8.659753 -4.207495 -6.220504 2.822021 -6.605236 -11.550554 -26.872466 -2.152217 5.340075 16.198538 2.093992 0.146473 24.754957 0.003300 -0.368400 -1.012200 21.311145 7.833650 4.819271 -2.320556 -8.467242 31.910100 0.690087 -4.000517 10.808163 -0.174700 2.692400 -7.423600 2.146355 4.606881 1.439693 -1.972883 2.324152 -5.711969 4.142175 -4.566178 16.032816 0.070400 -1.890000 9.027300 -81.637401 13.145786 17.574143 8.824955 -16.404409 -1.380936 -1.205360 -1.658703 -0.846525 -7.125000 0.000000 0.000000 71.207927 6.356384 18.127869 -13.246318 26.182338 -4.016948 1.173523 -0.623912 0.668538 7.125000 0.000000 0.000000 
0.999901 17.941591 8.898642 -3.826002 -5.604133 2.700040 -7.589558 -11.274301 -26.706568 -2.071148 5.573866 17.125816 2.234219 -0.821641 24.333932 0.035900 -1.223300 -3.363400 20.909755 7.149028 3.983591 -2.811479 -9.018012 33.724416 0.735618 -4.458887 13.494437 -0.130000 2.323900 -6.401700 2.022046 4.339353 1.263871 -1.913549 2.177402 -5.888835 4.233423 -4.597924 16.148858 0.107400 -1.893100 9.011900 -81.561384 13.418230 17.119810 8.572268 -15.968853 -1.304242 -1.223945 -1.436718 -0.834804 -7.125000 0.000000 0.000000 71.443115 5.682210 17.388486 -12.906279 25.735993 -3.836508 1.214048 -0.687051 1.410605 7.125000 0.000000 0.000000 
1.021314 17.941185 9.130934 -3.706266 -4.685707 2.602454 -8.260546 -11.286208 -26.559807 -1.944058 5.844917 18.123487 2.312039 -1.776124 23.082888 0.096300 -2.001100 -5.508700 20.868216 6.194917 2.969125 -3.389058 -9.586720 35.686292 0.806939 -5.151266 16.180370 -0.085900 1.890900 -5.204300 1.971202 3.949904 1.099427 -1.901031 1.969398 -6.019367 4.096517 -4.650539 16.187073 0.030300 -1.919500 8.966800 -81.449119 13.931045 16.863779 8.576199 -15.973036 -1.308589 -1.168457 -1.402161 -0.706614 -7.125000 0.000000 0.000000 71.621531 5.134115 16.832961 -12.636143 25.379929 -3.704426 1.236551 -0.690415 1.769764 7.125000 0.000000 0.000000 
1.049424 17.957828 9.356122 -3.579096 -5.045192 2.284746 -8.792842 -10.724229 -26.367729 -1.778796 6.208736 19.295101 2.409298 -2.695398 21.674104 0.007900 -0.572800 -1.573900 20.484484 6.054229 2.314155 -3.980671 -10.189436 37.702664 0.697850 -5.577644 19.278490 -0.077100 1.790900 -4.928000 1.960940 4.093781 1.044313 -1.902140 2.024513 -6.256629 3.907381 -4.618824 16.406012 -0.051000 -1.907600 9.036300 -81.435890 14.146454 16.190014 8.395877 -15.684157 -1.253231 -1.148725 -1.427901 -0.042281 -7.125000 0.000000 0.000000 71.753835 4.722043 16.225158 -12.481553 25.178698 -3.645731 1.231359 -0.642140 1.977844 7.125000 0.000000 0.000000 
1.076723 17.971325 9.571467 -3.612059 -5.184201 2.011292 -9.082737 -10.250416 -26.253658 -1.669395 6.501237 20.276279 2.676050 -3.690873 22.629076 0.183700 2.760300 7.612200 20.402608 5.932968 1.490922 -4.651413 -10.798472 39.822388 0.561307 -6.186044 22.492385 -0.039600 1.284100 -3.530800 2.031112 4.155086 1.101941 -1.877654 2.044719 -6.299039 3.920585 -4.583431 16.549201 -0.029900 -1.890200 9.121700 -81.519464 13.899563 15.541485 8.098640 -15.180526 -1.164237 -1.182080 -1.362545 0.355094 -7.125000 0.000000 0.000000 71.887209 4.371936 15.462164 -12.519829 25.241150 -3.681961 1.217746 -0.601432 1.974478 7.125000 0.000000 0.000000 
1.099556 17.977921 9.775953 -3.670914 -5.220397 1.775071 -9.494754 -9.685343 -26.043841 -1.560364 6.743270 21.162427 2.908038 -4.910654 22.259474 0.234500 3.116900 8.604400 20.455197 5.842981 0.453005 -5.425698 -11.440606 42.100165 0.432595 -7.101508 25.573104 -0.003100 -0.360900 0.991500 2.041568 4.223663 1.059703 -1.972556 2.052240 -6.560446 4.099588 -4.671388 16.555195 0.042100 -1.919700 9.131700 -81.471073 13.881506 15.222781 7.945589 -14.928931 -1.120262 -1.253205 -1.252600 0.401774 -7.125000 0.000000 0.000000 72.104425 3.815023 14.983067 -12.583610 25.338994 -3.716772 1.235545 -0.558283 1.754278 7.125000 0.000000 0.000000 
